<?xml version="1.0" encoding="utf-8"?>
<!-- Generator: Adobe Illustrator 16.0.0, SVG Export Plug-In . SVG Version: 6.00 Build 0)  -->
<!DOCTYPE svg PUBLIC "-//W3C//DTD SVG 1.1//EN" "http://www.w3.org/Graphics/SVG/1.1/DTD/svg11.dtd">
<svg version="1.1" id="레이어_1" xmlns="http://www.w3.org/2000/svg" xmlns:xlink="http://www.w3.org/1999/xlink" x="0px"
	 y="0px" width="66.033px" height="102.121px" viewBox="0 0 66.033 102.121" enable-background="new 0 0 66.033 102.121"
	 xml:space="preserve">
<g>
	<path d="M57.482,100.807c-1.061,0-2.125-0.373-2.981-1.131L3.64,54.643c-0.977-0.865-1.531-2.111-1.517-3.417
		c0.014-1.305,0.593-2.54,1.588-3.384L55.235,4.133c1.896-1.609,4.735-1.374,6.343,0.521c1.607,1.895,1.375,4.734-0.521,6.342
		l-47.564,40.35l46.973,41.592c1.861,1.647,2.034,4.492,0.386,6.352C59.963,100.294,58.725,100.807,57.482,100.807z"/>
</g>
<path d="M81.287-129.936c1.061,0,2.125,0.373,2.982,1.131l50.86,45.033c0.978,0.865,1.531,2.111,1.517,3.417
	c-0.014,1.305-0.593,2.54-1.588,3.384L83.535-33.263c-1.896,1.609-4.736,1.375-6.344-0.521c-1.607-1.895-1.374-4.734,0.521-6.343
	l47.563-40.349l-46.974-41.592c-1.86-1.647-2.033-4.492-0.386-6.352C78.807-129.423,80.045-129.936,81.287-129.936z"/>
</svg>
